<svg id="Layer_1" data-name="Layer 1" xmlns="http://www.w3.org/2000/svg" viewBox="0 0 145 145"><defs><style>.cls-1{fill:#fff;}</style></defs><path class="cls-1" d="M82.69,100.31V72.42A16.91,16.91,0,0,0,75.9,42.28V58.91H69.11V42.28a16.92,16.92,0,0,0-6.8,30.14v27.89a16.93,16.93,0,0,0,6.8,30.15V113.83H75.9v16.63a16.92,16.92,0,0,0,6.79-30.15Z"/><path class="cls-1" d="M109.86,58.91a34.6,34.6,0,0,0-1.25-9.06l7.25-4.14L105.67,28l-7.28,4.24A36.52,36.52,0,0,0,82.69,23V14.54H62.31V23a37.27,37.27,0,0,0-15.75,9.19L39.33,28,29.14,45.72l7.2,4.08a35.8,35.8,0,0,0-1.2,9.11A34.7,34.7,0,0,0,36.4,68l-7.26,4.14L39.33,89.86l7.28-4.24a37,37,0,0,0,8.91,6.5V75.47a23.78,23.78,0,1,1,34,0V92.12a37.1,37.1,0,0,0,8.9-6.5l7.28,4.24,10.19-17.74L108.61,68a34.68,34.68,0,0,0,1.25-9.07Z"/></svg>