<svg id="Layer_1" data-name="Layer 1" xmlns="http://www.w3.org/2000/svg" viewBox="0 0 145 145"><defs><style>.cls-1{fill:#fff;}</style></defs><path class="cls-1" d="M72.5,69.85A12.94,12.94,0,1,0,85.43,82.78,12.94,12.94,0,0,0,72.5,69.85Z"/><path class="cls-1" d="M101.08,35.1V32.47A18,18,0,0,0,83.15,14.54H61.85A18,18,0,0,0,43.92,32.47V35.1H8.37v95.36H136.63V35.1ZM51.43,32.47A10.43,10.43,0,0,1,61.85,22.05h21.3A10.43,10.43,0,0,1,93.57,32.47V35.1H51.43Zm48.75,54.07H92.59a20.3,20.3,0,0,1-3.23,7.79l5.37,5.37L89.41,105l-5.36-5.36a20.43,20.43,0,0,1-7.79,3.23v7.58H68.74v-7.58A20.3,20.3,0,0,1,61,99.65L55.58,105,50.27,99.7l5.37-5.37a20.16,20.16,0,0,1-3.24-7.79H44.82V79H52.4a20.16,20.16,0,0,1,3.24-7.79l-5.37-5.37,5.31-5.32L61,65.92a20.3,20.3,0,0,1,7.79-3.23V55.1h7.52v7.59a20.43,20.43,0,0,1,7.79,3.23l5.36-5.37,5.32,5.32-5.37,5.37A20.3,20.3,0,0,1,92.59,79h7.59Z"/></svg>