<svg id="Layer_1" data-name="Layer 1" xmlns="http://www.w3.org/2000/svg" viewBox="0 0 145 145"><defs><style>.cls-1{fill:#fff;}</style></defs><path class="cls-1" d="M90.67,32a19.19,19.19,0,0,0-.18,2.53,19.47,19.47,0,0,0,.18,2.54l4.43,1.82a16,16,0,0,0,1.42,3.44l-1.84,4.42a20.22,20.22,0,0,0,3.58,3.58l4.42-1.84a16,16,0,0,0,3.44,1.42l1.82,4.43a19.47,19.47,0,0,0,2.54.18,19.19,19.19,0,0,0,2.53-.18l1.82-4.43a15.77,15.77,0,0,0,3.44-1.42l4.42,1.84a20.27,20.27,0,0,0,3.59-3.58l-1.85-4.42a16,16,0,0,0,1.42-3.44l4.44-1.82a21.38,21.38,0,0,0,.17-2.54,21.07,21.07,0,0,0-.17-2.53l-4.44-1.82a15.77,15.77,0,0,0-1.42-3.44l1.85-4.42a20.33,20.33,0,0,0-3.59-3.59l-4.42,1.85a15.77,15.77,0,0,0-3.44-1.42L113,14.71a21.07,21.07,0,0,0-2.53-.17,21.38,21.38,0,0,0-2.54.17l-1.82,4.44a16,16,0,0,0-3.44,1.42l-4.42-1.85a20.27,20.27,0,0,0-3.58,3.59l1.84,4.42a15.77,15.77,0,0,0-1.42,3.44Zm19.81-5.46a8,8,0,1,1-8,8A8,8,0,0,1,110.48,26.53Z"/><path class="cls-1" d="M48.74,54.7,47.27,61a32.23,32.23,0,0,0-6,1.61L36.89,57.9a38.14,38.14,0,0,0-6.53,3.78l1.85,6.1a32.24,32.24,0,0,0-4.41,4.41l-6.09-1.86a37.9,37.9,0,0,0-3.79,6.54l4.68,4.38a31.55,31.55,0,0,0-1.6,6l-6.27,1.46a37.6,37.6,0,0,0,0,7.55L21,97.73a31.45,31.45,0,0,0,1.6,6l-4.68,4.39a38.19,38.19,0,0,0,3.79,6.53l6.09-1.85a32.82,32.82,0,0,0,4.41,4.41l-1.85,6.09a38.19,38.19,0,0,0,6.53,3.79l4.38-4.68a31.75,31.75,0,0,0,6,1.6l1.47,6.27a37.6,37.6,0,0,0,7.55,0L57.75,124a31.55,31.55,0,0,0,6-1.6l4.38,4.68a37.81,37.81,0,0,0,6.53-3.79l-1.85-6.09a32.24,32.24,0,0,0,4.41-4.41l6.09,1.85a38.19,38.19,0,0,0,3.79-6.53l-4.68-4.38a32.54,32.54,0,0,0,1.61-6l6.27-1.47c.12-1.24.19-2.5.19-3.77s-.07-2.54-.19-3.78L84,87.25a32.33,32.33,0,0,0-1.61-6l4.68-4.38a37.76,37.76,0,0,0-3.78-6.53l-6.1,1.85a31.69,31.69,0,0,0-4.41-4.41l1.86-6.09a37.9,37.9,0,0,0-6.54-3.79l-4.38,4.68a32.33,32.33,0,0,0-6-1.61L56.29,54.7c-1.24-.12-2.5-.19-3.78-.19s-2.53.07-3.77.19ZM74.5,92.49a22,22,0,1,1-22-22A22,22,0,0,1,74.5,92.49Z"/><path class="cls-1" d="M81,23.1l5-3.33,2.22,3.32-5,3.33Z"/><path class="cls-1" d="M72.67,28.65l5-3.32,2.22,3.32-5,3.33Z"/><path class="cls-1" d="M64.36,34.2l5-3.33,2.22,3.33-5,3.33Z"/><path class="cls-1" d="M47.73,45.29l5-3.33,2.22,3.33-5,3.33Z"/><path class="cls-1" d="M39.42,50.84l5-3.33,2.22,3.33-5,3.32Z"/><path class="cls-1" d="M56.05,39.75l5-3.33,2.21,3.32-5,3.33Z"/><path class="cls-1" d="M101.06,88.38l3.09-5.14,3.42,2.06-3.08,5.14Z"/><path class="cls-1" d="M106.21,79.81l3.09-5.14,3.42,2.06-3.09,5.13Z"/><path class="cls-1" d="M90.77,105.52l3.08-5.14,3.43,2.06-3.09,5.14Z"/><path class="cls-1" d="M95.91,97,99,91.81l3.43,2.06L99.34,99Z"/><path class="cls-1" d="M116.5,62.66l3.09-5.13,3.42,2-3.08,5.14Z"/><path class="cls-1" d="M111.35,71.24l3.09-5.14,3.43,2.06-3.09,5.13Z"/></svg>