<svg id="Layer_1" data-name="Layer 1" xmlns="http://www.w3.org/2000/svg" viewBox="0 0 145 145"><defs><style>.cls-1{fill:#fff;}</style></defs><path class="cls-1" d="M64.5,99.78h16v6.8h-16Z"/><path class="cls-1" d="M87.29,96.35h43.17V110H87.29Z"/><path class="cls-1" d="M87.29,75.9h43.17V89.56H87.29Z"/><path class="cls-1" d="M87.29,116.8h43.17v13.66H87.29Z"/><path class="cls-1" d="M14.54,75.9H57.71V89.56H14.54Z"/><path class="cls-1" d="M14.54,116.8H57.71v13.66H14.54Z"/><path class="cls-1" d="M14.54,96.35H57.71V110H14.54Z"/><path class="cls-1" d="M39.52,45.22h4.6v-6.8H32.73V69.1h6.79Z"/><path class="cls-1" d="M105.48,69.1h6.79V38.42H100.88v6.8h4.6Z"/><path class="cls-1" d="M50.91,35H94.09V48.65H50.91Z"/><path class="cls-1" d="M50.91,14.54H94.09V28.2H50.91Z"/><path class="cls-1" d="M50.91,55.44H94.09V69.1H50.91Z"/></svg>