<svg id="Layer_1" data-name="Layer 1" xmlns="http://www.w3.org/2000/svg" viewBox="0 0 145 145"><defs><style>.cls-1{fill:#fff;}</style></defs><path class="cls-1" d="M110.48,87.86,57.13,34.76a2.41,2.41,0,0,0-3.4,0L44.2,44.29a2.41,2.41,0,0,0,0,3.41l3.12,3.13-15,15a26.51,26.51,0,0,0-1.68,35.48L15.24,116.69a2.43,2.43,0,0,0,0,3.42l9.65,9.65a2.44,2.44,0,0,0,3.42,0l15.38-15.38a26.3,26.3,0,0,0,35.47-1.68l15-15,3.11,3.12a2.42,2.42,0,0,0,3.39,0l9.78-9.52a2.41,2.41,0,0,0,.73-1.71A2.45,2.45,0,0,0,110.48,87.86Z"/><path class="cls-1" d="M98.78,17.23a9.24,9.24,0,0,0-13,0L66.1,36.88l13.09,13L98.81,30.3a9.22,9.22,0,0,0,0-13.07Z"/><path class="cls-1" d="M127.74,46.19a9.24,9.24,0,0,0-13,0L95.12,65.77l13.1,13,19.54-19.55a9.21,9.21,0,0,0,0-13.07Z"/></svg>