<svg id="Layer_1" data-name="Layer 1" xmlns="http://www.w3.org/2000/svg" viewBox="0 0 145 145"><defs><style>.cls-1{fill:#fff;}</style></defs><path class="cls-1" d="M62.31,52.12a17,17,0,0,0-34,0,17,17,0,1,0,34,0Z"/><path class="cls-1" d="M75.9,103.29H72.5a3.4,3.4,0,0,0-3.4,3.4v6.79a3.4,3.4,0,0,0,3.4,3.4h3.4a6.8,6.8,0,0,0,0-13.59Z"/><path class="cls-1" d="M33.85,130.46l2.24-6.79H31.74a22.22,22.22,0,0,1-10.19-2.38v5.78a3.36,3.36,0,0,0,3.4,3.39Z"/><path class="cls-1" d="M31.74,116.88H38.4c-.28.84,4.25-12.87,4.48-13.59H31.74a3.36,3.36,0,0,1-3.39-3.39V86.31a3.4,3.4,0,0,1,6.79,0V96.5h10c-.25.71,3.56-10.56,3.8-11.28a3.31,3.31,0,0,1,3.19-2.3H75.56A17,17,0,0,0,58.91,69.33H31.74a17.17,17.17,0,0,0-17.2,17V99.9c0,9.71,8.33,17,17.2,17Z"/><path class="cls-1" d="M77,89.71H54.57L41,130.46H65.71a3.39,3.39,0,0,0,3.22-2.32l1.56-4.67a10.21,10.21,0,0,1-8.18-10v-6.79A10.2,10.2,0,0,1,72.5,96.5h3.4a13.31,13.31,0,0,1,3.41.49l.94-2.81A3.4,3.4,0,0,0,77,89.71Z"/><path class="cls-1" d="M120.28,14.54h-41A10.2,10.2,0,0,0,69.1,24.72v27.4A10.4,10.4,0,0,0,79.29,62.54h3.4V72.73a3.4,3.4,0,0,0,5.8,2.4l12.59-12.59h19.2a10.4,10.4,0,0,0,10.18-10.42V24.72a10.2,10.2,0,0,0-10.18-10.18Zm-11.42,23L98.68,47.73a3.39,3.39,0,0,1-4.81,0l-5.09-5.09a3.4,3.4,0,0,1,4.8-4.81l2.69,2.7,7.79-7.79a3.39,3.39,0,1,1,4.8,4.8Z"/></svg>